<svg xmlns="http://www.w3.org/2000/svg" viewBox="0 0 1200 675" role="img" aria-label="Object Tracker with FPGA">
  <defs>
    <linearGradient id="g" x1="0" y1="0" x2="1" y2="1">
      <stop offset="0" stop-color="#22d3ee" stop-opacity="0.85"/>
      <stop offset="1" stop-color="#ec4899" stop-opacity="0.80"/>
    </linearGradient>
    <filter id="s" x="-20%" y="-20%" width="140%" height="140%">
      <feDropShadow dx="0" dy="14" stdDeviation="18" flood-color="#000" flood-opacity="0.35"/>
    </filter>
  </defs>

  <rect width="1200" height="675" fill="#0b1220"/>
  <rect x="70" y="70" width="1060" height="535" rx="36" fill="url(#g)" filter="url(#s)" opacity="0.26"/>

  <!-- Stylized FPGA + bounding box motif -->
  <g fill="none" stroke="rgba(255,255,255,0.85)" stroke-width="10" stroke-linecap="round" stroke-linejoin="round">
    <rect x="365" y="190" width="470" height="295" rx="22" opacity="0.85"/>
    <path d="M420 190v-40M510 190v-40M600 190v-40M690 190v-40M780 190v-40" opacity="0.55"/>
    <path d="M420 485v40M510 485v40M600 485v40M690 485v40M780 485v40" opacity="0.55"/>
    <path d="M365 250h-40M365 320h-40M365 390h-40" opacity="0.55"/>
    <path d="M835 250h40M835 320h40M835 390h40" opacity="0.55"/>

    <rect x="470" y="270" width="260" height="145" rx="14" opacity="0.70"/>
    <path d="M500 300h200" opacity="0.60"/>
    <path d="M500 335h200" opacity="0.60"/>
    <path d="M500 370h140" opacity="0.60"/>

    <rect x="510" y="240" width="180" height="180" rx="18" opacity="0.25"/>
    <path d="M540 265h120v130H540z" opacity="0.80"/>
  </g>

  <g fill="rgba(255,255,255,0.92)">
    <text x="90" y="570" font-family="ui-monospace, Menlo, Consolas, monospace" font-size="44">~/projects/fpga-tracker</text>
    <text x="90" y="615" font-family="ui-sans-serif, system-ui" font-size="30" fill="rgba(255,255,255,0.78)">Basys3 • FPGA • UFDS • GUI</text>
  </g>
</svg>
