<svg xmlns="http://www.w3.org/2000/svg" width="320" height="200" viewBox="0 0 320 200" fill="none">
  <defs>
    <linearGradient id="g" x1="0" y1="0" x2="1" y2="1">
      <stop offset="0" stop-color="#7c3aed" stop-opacity="0.25"/>
      <stop offset="1" stop-color="#22c55e" stop-opacity="0.18"/>
    </linearGradient>
  </defs>
  <rect x="0.5" y="0.5" width="319" height="199" rx="20" fill="url(#g)" stroke="rgba(255,255,255,0.18)"/>
  <g opacity="0.92">
    <path d="M98 52c0-6.627 5.373-12 12-12h78l34 34v74c0 6.627-5.373 12-12 12H110c-6.627 0-12-5.373-12-12V52z" fill="rgba(255,255,255,0.16)" stroke="rgba(255,255,255,0.24)"/>
    <path d="M188 40v22c0 6.627 5.373 12 12 12h22" fill="rgba(255,255,255,0.10)"/>
    <rect x="112" y="112" width="96" height="30" rx="10" fill="rgba(255,255,255,0.22)"/>
    <path d="M126.5 132v-10h4.3c2.9 0 4.7 1.6 4.7 4 0 2.5-1.8 4-4.7 4h-2.2v2h-2.1zm2.1-4h2.1c1.6 0 2.5-.8 2.5-2 0-1.2-.9-2-2.5-2h-2.1v4zm9.4 4v-10h3.8c3.4 0 5.5 2 5.5 5 0 3-2.1 5-5.5 5H138zm2.1-1.9h1.7c2.2 0 3.4-1.2 3.4-3.1 0-1.9-1.2-3.1-3.4-3.1h-1.7v6.2zm10.3 1.9v-10h7.1v1.9h-5v2.2h4.5v1.9h-4.5v4.1h-2.1z" fill="rgba(10,10,10,0.65)"/>
  </g>
</svg>
